<svg xmlns="http://www.w3.org/2000/svg" width="644" height="1542"><path fill-rule="evenodd" fill="#FFF" d="M305.999 0h50v358h1L644 241.999V296L356.999 410.999l-1 323.001C451.99 695.337 548.9 656.662 644 617.999V671c-95.1 38.996-192.01 78.3-288.001 116.999l1 379c79.993 49.995 160.701 100.401 240.001 150v58l-176-109c-19.08-12.189-41.81-34.376-65.001-40v316h-50v-733L60.999 907c-18.327 7.421-37.185 20.567-59 22.999v-52l304-123.999V432.999l-304 122C1.728 539.293-1.486 512.885 4 501l300.999-121 1-380Z"/></svg>