<svg version="1.1" id="Layer_1" xmlns="http://www.w3.org/2000/svg" xmlns:xlink="http://www.w3.org/1999/xlink" x="0px" y="0px"
	 width="100%" viewBox="0 0 224 224" enable-background="new 0 0 224 224" xml:space="preserve">
<path fill="#000000" opacity="1.000000" stroke="none" 
	d="
M19.756245,122.999908 
	C19.762669,105.170341 19.902334,87.839439 19.727863,70.511711 
	C19.616596,59.460857 24.473791,51.412857 34.230072,46.885925 
	C57.340313,36.162735 80.553604,25.644821 103.945580,15.554762 
	C112.110283,12.032940 121.015968,12.187131 129.202408,16.082851 
	C151.460236,26.674799 173.542740,37.634617 195.763748,48.304863 
	C204.472397,52.486649 208.232574,59.637997 208.278793,68.780792 
	C208.432114,99.106750 208.437454,129.434464 208.281448,159.760376 
	C208.232742,169.223892 203.769852,176.359467 195.019180,180.347427 
	C172.289597,190.706009 149.579727,201.113388 126.715294,211.167740 
	C117.982292,215.007980 108.783928,214.937332 100.083931,210.787521 
	C78.288040,200.391129 56.653744,189.656021 34.860912,179.253098 
	C24.520575,174.317062 19.733526,166.250626 19.768356,154.992844 
	C19.800837,144.495316 19.763208,133.997574 19.756245,122.999908 
M80.154968,189.240768 
	C88.098450,193.082840 96.075783,196.856888 103.974754,200.788376 
	C110.379303,203.976074 116.766808,203.948044 123.222816,201.132324 
	C126.579475,199.668350 129.889954,198.098694 133.225281,196.585556 
	C152.024551,188.056885 170.819992,179.519730 189.628555,171.011566 
	C194.445297,168.832657 197.616974,165.166885 197.642136,159.925507 
	C197.789215,129.279114 197.734253,98.631416 197.635208,67.984520 
	C197.620636,63.472656 195.258820,60.051624 191.171585,58.060257 
	C168.873352,47.196129 146.593994,36.291561 124.211357,25.603626 
	C119.086411,23.156414 113.349190,22.987938 108.165497,25.284107 
	C85.031197,35.531670 61.974125,45.957066 38.987423,56.531845 
	C33.306488,59.145298 30.255737,63.736923 30.290113,70.435905 
	C30.434553,98.584389 30.417496,126.734299 30.308037,154.883087 
	C30.280855,161.873398 33.324261,166.548401 39.492153,169.519135 
	C52.839050,175.947617 66.155823,182.438644 80.154968,189.240768 
z"/>
<path fill="#000000" opacity="1.000000" stroke="none" 
	d="
M89.768288,130.007172 
	C89.770622,128.010468 89.773285,126.512138 89.774269,125.013817 
	C89.780182,116.026337 89.790482,115.898277 80.863800,115.171143 
	C77.290535,114.880074 77.036560,112.764503 76.987473,110.063377 
	C76.933083,107.070488 78.603760,106.582085 81.158409,106.595604 
	C90.200066,106.643478 89.801949,108.204674 89.777260,97.589813 
	C89.763313,91.596550 89.867157,85.600197 89.701553,79.611214 
	C89.608200,76.234879 90.811508,74.770477 94.313026,74.830254 
	C102.800941,74.975143 111.309830,74.551407 119.779327,74.975197 
	C136.018280,75.787735 144.600708,90.900978 136.712479,104.215347 
	C135.307693,106.586456 133.086426,108.014839 130.823502,110.136414 
	C140.593918,114.362549 143.851334,122.274277 142.858292,132.005020 
	C141.522522,145.093964 134.731430,151.080292 119.932312,152.020584 
	C111.309608,152.568451 102.625069,152.105972 93.969215,152.188263 
	C90.644394,152.219849 89.671906,150.509537 89.727600,147.485977 
	C89.831825,141.827499 89.764061,136.165878 89.768288,130.007172 
M99.349083,122.648499 
	C99.351410,128.147842 99.414528,133.648117 99.330994,139.146149 
	C99.287796,141.988907 100.146873,143.510605 103.348358,143.359360 
	C109.003151,143.092194 114.678841,143.245132 120.330544,142.940033 
	C128.709824,142.487701 133.423187,137.671036 133.606873,129.722260 
	C133.789001,121.840698 128.198792,115.767250 120.058205,115.311905 
	C115.405220,115.051636 110.729668,115.168892 106.064224,115.163223 
	C99.427940,115.155159 99.427917,115.173637 99.349083,122.648499 
M102.152153,106.557343 
	C108.620750,106.437553 115.143646,107.305199 121.533287,105.706879 
	C127.187599,104.292488 130.103180,99.913269 129.701416,93.709465 
	C129.354248,88.348602 126.227219,84.774582 120.590218,84.249130 
	C114.978210,83.726028 109.309113,83.765114 103.663193,83.676353 
	C100.636284,83.628754 99.182678,85.097382 99.309395,88.327400 
	C99.491837,92.977661 99.345818,97.640404 99.363968,102.297729 
	C99.370438,103.956917 99.221573,105.722237 102.152153,106.557343 
z"/>
</svg>