<?xml version="1.0" encoding="UTF-8"?>
<svg version="1.1" xmlns="http://www.w3.org/2000/svg" width="200" height="200">
<path d="M0 0 C64.68 0 129.36 0 196 0 C196.020625 28.359375 196.04125 56.71875 196.0625 85.9375 C196.071604 94.90800537 196.08070801 103.87851074 196.09008789 113.12084961 C196.09460449 124.03430176 196.09460449 124.03430176 196.09544373 129.13551331 C196.0963793 132.7154756 196.10014227 136.29542322 196.10557556 139.87538147 C196.11240159 144.43292263 196.11449732 148.99044226 196.11307228 153.54798806 C196.11337054 155.22617593 196.11537292 156.90436452 196.11921513 158.58254802 C196.12414253 160.83837995 196.12300715 163.0941267 196.12025452 165.34996033 C196.12163721 167.25115836 196.12163721 167.25115836 196.12304783 169.19076443 C196 172 196 172 195 173 C192.48325639 173.09773905 189.99398173 173.12995545 187.47679138 173.12025452 C186.28107068 173.12153615 186.28107068 173.12153615 185.061194 173.12284368 C182.36946835 173.12450092 179.67780397 173.11897316 176.98608398 173.11352539 C175.06477866 173.11324355 173.14347323 173.1134012 171.22216797 173.1139679 C165.98891366 173.11425597 160.75568205 173.10835759 155.52243304 173.10139394 C150.0598021 173.0951621 144.59717069 173.09455674 139.13453674 173.09336853 C128.78247776 173.09025471 118.43042927 173.08204064 108.07837492 173.07201904 C94.09513888 173.05877469 80.11189998 173.05335841 66.12865925 173.04751682 C44.08576496 173.03810078 22.04289284 173.0181822 0 173 C0 115.91 0 58.82 0 0 Z M4 4 C4 58.12 4 112.24 4 168 C65.71 168 127.42 168 191 168 C191 113.88 191 59.76 191 4 C129.29 4 67.58 4 4 4 Z " fill="#000000" transform="translate(2,0)"/>
<path d="M0 0 C3.96 0 7.92 0 12 0 C12 10.56 12 21.12 12 32 C14.97 32 17.94 32 21 32 C21 21.44 21 10.88 21 0 C24.96 0 28.92 0 33 0 C33 10.56 33 21.12 33 32 C35.97 32 38.94 32 42 32 C42 21.44 42 10.88 42 0 C45.96 0 49.92 0 54 0 C54 14.19 54 28.38 54 43 C36.18 43 18.36 43 0 43 C0 28.81 0 14.62 0 0 Z " fill="#000000" transform="translate(18,14)"/>
<path d="M0 0 C4.62 0 9.24 0 14 0 C14 14.19 14 28.38 14 43 C9.38 43 4.76 43 0 43 C0 39.37 0 35.74 0 32 C-4.62 32 -9.24 32 -14 32 C-14 28.7 -14 25.4 -14 22 C-9.38 22 -4.76 22 0 22 C0 14.74 0 7.48 0 0 Z " fill="#000000" transform="translate(91,14)"/>
<path d="M0 0 C8.91 0 17.82 0 27 0 C27 14.19 27 28.38 27 43 C22.71 43 18.42 43 14 43 C13.67 39.7 13.34 36.4 13 33 C8.71 32.67 4.42 32.34 0 32 C0 28.7 0 25.4 0 22 C6.435 21.505 6.435 21.505 13 21 C13.33 17.7 13.66 14.4 14 11 C9.38 11 4.76 11 0 11 C0 7.37 0 3.74 0 0 Z " fill="#000000" transform="translate(111,14)"/>
<path d="M0 0 C12.21 0 24.42 0 37 0 C37 3.63 37 7.26 37 11 C33.37 11 29.74 11 26 11 C26.00785522 12.40076782 26.00785522 12.40076782 26.01586914 13.82983398 C26.0328762 17.28312796 26.04543302 20.73637767 26.05493164 24.18969727 C26.05997121 25.68644918 26.06680287 27.18319616 26.07543945 28.67993164 C26.08752159 30.82699807 26.09323191 32.97399962 26.09765625 35.12109375 C26.10551147 37.06133423 26.10551147 37.06133423 26.11352539 39.04077148 C26 42 26 42 25 43 C20.71 43 16.42 43 12 43 C12 32.44 12 21.88 12 11 C8.04 11 4.08 11 0 11 C0 7.37 0 3.74 0 0 Z " fill="#000000" transform="translate(144,14)"/>
<path d="M0 0 C9.57 0 19.14 0 29 0 C30.86687577 1.86687577 30.12006498 4.54281448 30.12442017 7.02632141 C30.12082489 7.89234482 30.11722961 8.75836823 30.11352539 9.65063477 C30.11367142 10.55786285 30.11381744 11.46509094 30.1139679 12.39981079 C30.11326841 15.41369985 30.10547434 18.42752793 30.09765625 21.44140625 C30.0957922 23.52505967 30.09436824 25.60871354 30.09336853 27.69236755 C30.08954234 33.18823446 30.0797112 38.68407513 30.06866455 44.17993164 C30.0584526 49.78336227 30.05387137 55.38679713 30.04882812 60.99023438 C30.03808902 71.993503 30.02049141 82.99674521 30 94 C20.1 94 10.2 94 0 94 C0 62.98 0 31.96 0 0 Z " fill="#000000" transform="translate(18,64)"/>
<path d="M0 0 C19.8 0 39.6 0 60 0 C60 7.92 60 15.84 60 24 C50.1 24 40.2 24 30 24 C30 31.92 30 39.84 30 48 C39.9 48 49.8 48 60 48 C60 55.59 60 63.18 60 71 C50.1 71 40.2 71 30 71 C30 78.92 30 86.84 30 95 C20.1 95 10.2 95 0 95 C0 63.65 0 32.3 0 0 Z " fill="#000000" transform="translate(54,64)"/>
<path d="M0 0 C1.06367294 0.00222061 2.12734589 0.00444122 3.22325134 0.00672913 C5.05031616 0.0069104 5.05031616 0.0069104 6.91429138 0.00709534 C8.20468323 0.0122113 9.49507507 0.01732727 10.8245697 0.02259827 C12.00305481 0.02360535 13.18153992 0.02461243 14.39573669 0.02565002 C18.81863878 0.03090136 23.24152704 0.04486247 27.66441345 0.05775452 C37.54378845 0.07837952 47.42316345 0.09900452 57.60191345 0.12025452 C57.60191345 23.55025452 57.60191345 46.98025452 57.60191345 71.12025452 C37.47191345 71.12025452 17.34191345 71.12025452 -3.39808655 71.12025452 C-3.39808655 63.53025452 -3.39808655 55.94025452 -3.39808655 48.12025452 C11.45191345 47.62525452 11.45191345 47.62525452 26.60191345 47.12025452 C26.93191345 39.53025452 27.26191345 31.94025452 27.60191345 24.12025452 C17.37191345 24.12025452 7.14191345 24.12025452 -3.39808655 24.12025452 C-3.41871155 20.34587952 -3.43933655 16.57150452 -3.46058655 12.68275452 C-3.46969055 11.4910968 -3.47879456 10.29943909 -3.48817444 9.07167053 C-3.490672 8.14024231 -3.49316956 7.20881409 -3.4957428 6.24916077 C-3.50097961 5.29082336 -3.50621643 4.33248596 -3.51161194 3.34510803 C-3.35264747 0.22974627 -3.12283535 0.15659779 0 0 Z " fill="#000000" transform="translate(123.39808654785156,63.87974548339844)"/>
<path d="M0 0 C9.9 0 19.8 0 30 0 C30 5.61 30 11.22 30 17 C25.88822073 17.02291394 21.77660342 17.04283951 17.66479492 17.05493164 C16.26504772 17.0599708 14.8653058 17.06680216 13.46557617 17.07543945 C11.45754223 17.0875232 9.44947043 17.09269807 7.44140625 17.09765625 C6.23170166 17.10289307 5.02199707 17.10812988 3.77563477 17.11352539 C1 17 1 17 0 16 C-0.07325436 13.3013095 -0.09222351 10.63497444 -0.0625 7.9375 C-0.041875 5.318125 -0.02125 2.69875 0 0 Z " fill="#000000" transform="translate(120,142)"/>
<path d="M0 0 C0.9583374 0.00523682 1.9166748 0.01047363 2.90405273 0.01586914 C4.45576172 0.02070313 4.45576172 0.02070313 6.03881836 0.02563477 C7.12743164 0.03401367 8.21604492 0.04239258 9.33764648 0.05102539 C10.97636719 0.05779297 10.97636719 0.05779297 12.64819336 0.06469727 C15.35723144 0.07652713 18.06616248 0.09300996 20.77514648 0.11352539 C20.77514648 1.76352539 20.77514648 3.41352539 20.77514648 5.11352539 C14.83514648 5.11352539 8.89514648 5.11352539 2.77514648 5.11352539 C3.10514648 7.75352539 3.43514648 10.39352539 3.77514648 13.11352539 C7.40514648 13.44352539 11.03514648 13.77352539 14.77514648 14.11352539 C14.77514648 12.46352539 14.77514648 10.81352539 14.77514648 9.11352539 C16.75514648 9.11352539 18.73514648 9.11352539 20.77514648 9.11352539 C20.77514648 12.41352539 20.77514648 15.71352539 20.77514648 19.11352539 C16.96260026 19.14035332 13.15024037 19.16028017 9.33764648 19.17602539 C8.2490332 19.1844043 7.16041992 19.1927832 6.03881836 19.20141602 C5.0043457 19.20463867 3.96987305 19.20786133 2.90405273 19.21118164 C1.94571533 19.21641846 0.98737793 19.22165527 0 19.22705078 C-2.22485352 19.11352539 -2.22485352 19.11352539 -3.22485352 18.11352539 C-3.32472326 15.27017491 -3.36363233 12.45655376 -3.34985352 9.61352539 C-3.3537207 8.8155957 -3.35758789 8.01766602 -3.36157227 7.19555664 C-3.34964589 0.17091905 -3.34964589 0.17091905 0 0 Z " fill="#000000" transform="translate(4.224853515625,180.886474609375)"/>
<path d="M0 0 C7.59 0 15.18 0 23 0 C23 6.27 23 12.54 23 19 C21.35 19 19.7 19 18 19 C17.505 16.525 17.505 16.525 17 14 C13.37 14 9.74 14 6 14 C5.67 15.65 5.34 17.3 5 19 C3.35 19 1.7 19 0 19 C0 12.73 0 6.46 0 0 Z M6 5 C6 6.32 6 7.64 6 9 C9.63 9 13.26 9 17 9 C17 7.68 17 6.36 17 5 C13.37 5 9.74 5 6 5 Z " fill="#000000" transform="translate(45,181)"/>
<path d="M0 0 C3.81254623 -0.02682792 7.62490612 -0.04675477 11.4375 -0.0625 C12.52611328 -0.07087891 13.61472656 -0.07925781 14.73632812 -0.08789062 C15.77080078 -0.09111328 16.80527344 -0.09433594 17.87109375 -0.09765625 C18.82943115 -0.10289307 19.78776855 -0.10812988 20.77514648 -0.11352539 C23 0 23 0 24 1 C24.09986975 3.84335048 24.13877881 6.65697163 24.125 9.5 C24.13080078 10.69689453 24.13080078 10.69689453 24.13671875 11.91796875 C24.12660767 17.87339233 24.12660767 17.87339233 23 19 C21.35 19 19.7 19 18 19 C18 14.38 18 9.76 18 5 C17.01 5 16.02 5 15 5 C15.01160156 5.92683594 15.02320312 6.85367188 15.03515625 7.80859375 C15.04417969 9.00613281 15.05320312 10.20367187 15.0625 11.4375 C15.07410156 12.63246094 15.08570312 13.82742187 15.09765625 15.05859375 C15 18 15 18 14 19 C12.35 19 10.7 19 9 19 C9 14.38 9 9.76 9 5 C8.01 5 7.02 5 6 5 C6 9.62 6 14.24 6 19 C4.02 19 2.04 19 0 19 C0 12.73 0 6.46 0 0 Z " fill="#000000" transform="translate(88,181)"/>
<path d="M0 0 C7.92 0 15.84 0 24 0 C24 1.65 24 3.3 24 5 C18.06 5 12.12 5 6 5 C6 5.66 6 6.32 6 7 C11.94 7 17.88 7 24 7 C23.67 8.65 23.34 10.3 23 12 C17.39 12 11.78 12 6 12 C6 12.66 6 13.32 6 14 C11.94 14 17.88 14 24 14 C24 15.65 24 17.3 24 19 C16.08 19 8.16 19 0 19 C0 12.73 0 6.46 0 0 Z " fill="#000000" transform="translate(131,181)"/>
<path d="M0 0 C7.92 0 15.84 0 24 0 C24 1.65 24 3.3 24 5 C18.06 5 12.12 5 6 5 C6 5.66 6 6.32 6 7 C11.94 7 17.88 7 24 7 C24 10.96 24 14.92 24 19 C16.08 19 8.16 19 0 19 C0 17.35 0 15.7 0 14 C5.94 14 11.88 14 18 14 C18 13.34 18 12.68 18 12 C12.06 12 6.12 12 0 12 C0 8.04 0 4.08 0 0 Z " fill="#000000" transform="translate(174,181)"/>
</svg>
