<svg xmlns="http://www.w3.org/2000/svg" xmlns:xlink="http://www.w3.org/1999/xlink" width="644px" height="1542px">
<path fill-rule="evenodd" fill="rgb(0, 0, 0)" d="M305.999,0.0 C322.664,0.0 339.334,0.0 355.999,0.0 C355.999,119.321 355.999,238.678 355.999,358.0 C356.333,358.0 356.666,358.0 356.999,358.0 C452.657,319.337 548.342,280.662 644.0,241.999 C644.0,259.998 644.0,278.1 644.0,296.0 C548.342,334.329 452.657,372.670 356.999,410.999 C356.666,518.655 356.333,626.344 355.999,734.0 C451.990,695.337 548.9,656.662 644.0,617.999 C644.0,635.664 644.0,653.335 644.0,671.0 C548.9,709.996 451.990,749.3 355.999,787.999 C356.333,914.320 356.666,1040.679 356.999,1166.999 C436.992,1216.994 517.7,1267.4 597.0,1316.999 C597.0,1336.331 597.0,1355.668 597.0,1374.999 C538.339,1338.670 479.660,1302.329 421.0,1265.999 C401.920,1253.810 379.190,1231.623 355.999,1225.999 C355.999,1331.322 355.999,1436.677 355.999,1541.999 C339.334,1541.999 322.664,1541.999 305.999,1541.999 C305.999,1297.691 305.999,1053.308 305.999,808.999 C224.341,841.663 142.658,874.336 60.999,907.0 C42.672,914.421 23.814,927.567 1.999,929.999 C1.999,912.668 1.999,895.331 1.999,877.999 C103.323,836.670 204.676,795.329 305.999,754.0 C305.999,647.10 305.999,539.989 305.999,432.999 C204.676,473.662 103.323,514.337 1.999,554.999 C1.728,539.293 -1.486,512.885 4.0,501.0 C104.323,460.670 204.676,420.329 304.999,380.0 C305.333,253.345 305.666,126.653 305.999,0.0 Z"></path>
</svg>