<svg xmlns="http://www.w3.org/2000/svg" xmlns:xlink="http://www.w3.org/1999/xlink" width="74px" height="114px">
<path fill-rule="evenodd" fill="rgb(0, 0, 0)" d="M53.57,112.652 C52.718,109.263 52.378,105.872 52.39,102.483 C56.386,102.390 58.632,100.766 60.692,98.415 C60.607,97.229 60.523,96.42 60.438,94.856 C58.400,90.272 48.936,91.546 45.168,93.585 C31.986,100.716 24.425,117.7 1.647,112.398 C1.562,112.144 1.477,111.889 1.393,111.635 C1.308,108.246 1.223,104.855 1.138,101.466 C1.393,101.466 1.647,101.466 1.902,101.466 C10.70,105.364 17.80,100.373 22.8,96.636 C30.397,90.273 40.34,77.984 57.638,81.636 C80.980,86.478 77.434,112.572 53.57,112.652 ZM72.400,0.791 C72.315,4.180 72.230,7.571 72.145,10.960 C71.891,11.45 71.636,11.129 71.382,11.214 C49.666,13.756 27.944,16.299 6.228,18.841 C6.228,18.926 6.228,19.11 6.228,19.95 C28.283,21.468 50.345,23.841 72.400,26.214 C72.400,29.773 72.400,33.333 72.400,36.891 C48.478,34.10 24.550,31.129 0.629,28.248 C0.629,21.808 0.629,15.366 0.629,8.926 C24.550,6.215 48.478,3.502 72.400,0.791 ZM72.400,47.61 C72.400,57.59 72.400,67.61 72.400,77.60 C68.158,77.60 63.916,77.60 59.674,77.60 C59.674,70.620 59.674,64.178 59.674,57.738 C55.603,57.738 51.530,57.738 47.458,57.738 C47.458,54.179 47.458,50.620 47.458,47.61 C55.771,47.61 64.87,47.61 72.400,47.61 ZM28.625,71.975 C28.625,67.230 28.625,62.484 28.625,57.738 C19.294,57.738 9.960,57.738 0.629,57.738 C0.629,54.179 0.629,50.620 0.629,47.61 C12.335,47.61 24.45,47.61 35.751,47.61 C35.751,53.839 35.751,60.620 35.751,67.399 C39.314,67.399 42.877,67.399 46.440,67.399 C44.562,72.966 36.222,72.163 28.625,71.975 ZM12.845,91.805 C12.761,91.975 12.676,92.144 12.591,92.314 C11.149,92.314 9.706,92.314 8.264,92.314 C5.719,93.330 3.174,94.348 0.629,95.364 C0.714,91.467 0.799,87.568 0.884,83.670 C3.587,82.510 6.928,82.122 10.809,82.144 C11.488,85.364 12.167,88.585 12.845,91.805 Z"></path>
</svg>