<svg 
 xmlns="http://www.w3.org/2000/svg"
 xmlns:xlink="http://www.w3.org/1999/xlink"
 width="644px" height="1542px">
<path fill-rule="evenodd"  fill="rgb(155, 155, 155)"
 d="M355.999,0.0 C355.999,119.321 355.999,238.678 355.999,358.0 C427.659,329.336 499.340,300.663 571.0,271.999 C591.426,264.54 622.761,242.930 644.0,243.0 C644.0,260.664 644.0,278.335 644.0,296.0 C548.342,334.329 452.657,372.670 356.999,410.999 C356.666,518.655 356.333,626.344 355.999,734.0 C451.323,695.337 546.676,656.662 642.0,617.999 C642.666,618.333 643.333,618.666 644.0,619.0 C644.0,636.664 644.0,654.335 644.0,672.0 C548.9,710.662 451.990,749.337 355.999,787.999 C356.333,913.654 356.666,1039.345 356.999,1164.999 C367.822,1180.350 408.561,1198.46 426.0,1209.0 C482.994,1244.996 540.5,1281.3 597.0,1316.999 C596.666,1336.331 596.333,1355.668 596.0,1374.999 C538.672,1339.336 481.327,1303.663 424.0,1267.999 C403.784,1255.403 380.366,1231.897 355.999,1225.999 C355.999,1331.322 355.999,1436.677 355.999,1541.999 C339.334,1541.999 322.664,1541.999 305.999,1541.999 C305.999,1297.691 305.999,1053.308 305.999,808.999 C227.674,840.330 149.325,871.669 70.999,902.999 C49.787,911.665 26.754,927.239 1.999,929.999 C2.333,912.335 2.666,894.664 2.999,877.0 C41.662,861.334 80.337,845.665 118.999,829.999 C160.329,813.334 201.670,796.664 242.999,779.999 C263.997,771.334 285.2,762.665 305.999,754.0 C305.999,647.10 305.999,539.989 305.999,432.999 C204.676,473.662 103.323,514.337 1.999,554.999 C1.728,539.293 -1.486,512.885 4.0,501.0 C104.323,460.670 204.676,420.329 304.999,380.0 C305.666,281.676 306.333,183.323 306.999,85.0 C306.999,56.669 306.999,28.330 306.999,0.0 C323.331,0.0 339.668,0.0 355.999,0.0 Z"/>
</svg>